<?xml version="1.0"?>
<svg width="70.00000000000001" height="42" xmlns="http://www.w3.org/2000/svg">

 <g>
  <title>background</title>
  <rect fill="none" id="canvas_background" height="44" width="72" y="-1" x="-1"/>
 </g>
 <g>
  <title>Layer 1</title>
  <g id="svg_7">
   <path id="svg_1" d="m0.277249,17.975512c0,8.167 5.788932,12.082998 12.863811,14.832998c7.075771,2.75 22.595116,2.75 34.487629,0s21.62286,-9.424999 21.62286,-14.832998c0,-5.409002 -9.607273,-12.083052 -21.349499,-14.833052s-27.261555,-2.749997 -34.487532,0s-13.137269,6.665999 -13.137269,14.833052z"/>
   <path id="svg_2" d="m59.629532,5.13346l0.633125,-1.817c0.353031,-1.013 1.380337,-1.814 2.282776,-1.782l5.885841,0.214c0.903244,0.033 1.40416,0.912 1.115082,1.954l-1.957603,7.04405c-0.109131,0.394 -0.302933,0.696 -0.543518,0.89c-1.975647,-1.91804 -4.57946,-3.66905 -7.501968,-5.16605c-0.079563,-0.443 -0.061535,-0.913 0.086266,-1.337z"/>
   <path id="svg_3" d="m59.629532,30.702511l0.633125,1.817997c0.353031,1.012001 1.380337,1.813999 2.282776,1.781002l5.885841,-0.215c0.903244,-0.032001 1.40416,-0.912003 1.115082,-1.952999l-1.957603,-7.045c-0.109131,-0.395 -0.302933,-0.695 -0.543518,-0.891001c-1.975647,1.919001 -4.57946,3.67 -7.501968,5.166c-0.079563,0.446001 -0.061535,0.915001 0.086266,1.339001z"/>
   <path id="svg_4" d="m42.295887,34.963509c0.373661,0.070999 0.584694,0.451 0.464745,0.927002l-1.15937,4.587997c-0.133072,0.526001 -0.610947,0.956001 -1.062569,0.956001l-15.326448,0c-0.451624,0 -0.929501,-0.43 -1.062571,-0.956001l-0.238087,-0.961998l-0.537401,-2.101101l0.015932,0.038101l-0.399916,-1.563c-0.008114,-0.032001 -0.001604,-0.061001 -0.007315,-0.092003c1.767008,0.129002 3.648262,0.197002 5.623098,0.197002c4.589285,0 9.287794,-0.364002 13.689901,-1.032001z"/>
  </g>
 </g>
</svg>
